name analog
datacolumns 19
datarows 77
range 0.73 0.768
endheader
time	ground_force_vx	ground_force_vy	ground_force_vz	ground_force_px	ground_force_py	ground_force_pz	l_ground_force_vx	l_ground_force_vy	l_ground_force_vz	l_ground_force_px	l_ground_force_py	l_ground_force_pz	ground_torque_x	ground_torque_y	ground_torque_z	l_ground_torque_x	l_ground_torque_y	l_ground_torque_z
0.73	-0.0	-0.0	-0.0	0.911515474319458	-1.5481269359588623	-609.8804321289062	-0.0	-0.0	-0.0	-0.0	-0.0	-0.0	-0.0	-0.0	-0.0	-0.0	-0.0	-0.0
0.7305	-0.0	-0.0	-0.0	1.2119680643081665	-1.6021909713745115	-607.1767578125	-0.0	-0.0	-0.0	-0.0	-0.0	-0.0	-0.0	-0.0	-0.0	-0.0	-0.0	-0.0
0.731	-0.0	-0.0	-0.0	1.3579471111297607	-1.0348855257034302	-608.3132934570312	-0.0	-0.0	-0.0	-0.0	-0.0	-0.0	-0.0	-0.0	-0.0	-0.0	-0.0	-0.0
0.7315	-0.0	-0.0	-0.0	1.1279703378677368	-0.7158392071723938	-610.5223999023438	-0.0	-0.0	-0.0	-0.0	-0.0	-0.0	-0.0	-0.0	-0.0	-0.0	-0.0	-0.0
0.732	-0.0	-0.0	-0.0	-0.6274690628051758	1.0351097583770752	-608.244140625	-0.0	-0.0	-0.0	-0.0	-0.0	-0.0	-0.0	-0.0	-0.0	-0.0	-0.0	-0.0
0.7325	-0.0	-0.0	-0.0	-0.4804598987102508	1.1586952209472656	-608.3121337890625	-0.0	-0.0	-0.0	-0.0	-0.0	-0.0	-0.0	-0.0	-0.0	-0.0	-0.0	-0.0
0.733	-0.0	-0.0	-0.0	-0.4253653287887573	1.7105931043624878	-608.5968627929688	-0.0	-0.0	-0.0	-0.0	-0.0	-0.0	-0.0	-0.0	-0.0	-0.0	-0.0	-0.0
0.7335	-0.0	-0.0	-0.0	-0.5011118054389954	1.888798713684082	-608.3262329101562	-0.0	-0.0	-0.0	-0.0	-0.0	-0.0	-0.0	-0.0	-0.0	-0.0	-0.0	-0.0
0.734	-0.0	-0.0	-0.0	-0.7688890695571899	2.380931615829468	-606.9143676757812	-0.0	-0.0	-0.0	-0.0	-0.0	-0.0	-0.0	-0.0	-0.0	-0.0	-0.0	-0.0
0.7345	-0.0	-0.0	-0.0	-0.9473888874053956	2.423469066619873	-607.419677734375	-0.0	-0.0	-0.0	-0.0	-0.0	-0.0	-0.0	-0.0	-0.0	-0.0	-0.0	-0.0
0.735	-0.0	-0.0	-0.0	-1.1813145875930786	1.9439759254455569	-606.0567626953125	-0.0	-0.0	-0.0	-0.0	-0.0	-0.0	-0.0	-0.0	-0.0	-0.0	-0.0	-0.0
0.7355	-0.0	-0.0	-0.0	-0.9644803404808044	1.3655668497085571	-603.2581787109375	-0.0	-0.0	-0.0	-0.0	-0.0	-0.0	-0.0	-0.0	-0.0	-0.0	-0.0	-0.0
0.736	-0.0	-0.0	-0.0	-1.3045653104782104	1.2038134336471558	-604.2908935546875	-0.0	-0.0	-0.0	-0.0	-0.0	-0.0	-0.0	-0.0	-0.0	-0.0	-0.0	-0.0
0.7365	-0.0	-0.0	-0.0	-1.009402632713318	1.0139179229736328	-604.158203125	-0.0	-0.0	-0.0	-0.0	-0.0	-0.0	-0.0	-0.0	-0.0	-0.0	-0.0	-0.0
0.737	-0.0	-0.0	-0.0	-1.7450515031814575	1.0920194387435913	-601.5746459960938	-0.0	-0.0	-0.0	-0.0	-0.0	-0.0	-0.0	-0.0	-0.0	-0.0	-0.0	-0.0
0.7375	-0.0	-0.0	-0.0	-2.246891498565674	1.0302759408950806	-600.6931762695312	-0.0	-0.0	-0.0	-0.0	-0.0	-0.0	-0.0	-0.0	-0.0	-0.0	-0.0	-0.0
0.738	-0.0	-0.0	-0.0	-2.692871332168579	0.6340287923812866	-601.3343505859375	-0.0	-0.0	-0.0	-0.0	-0.0	-0.0	-0.0	-0.0	-0.0	-0.0	-0.0	-0.0
0.7385	-0.0	-0.0	-0.0	-3.3074169158935547	0.5579061508178711	-599.895751953125	-0.0	-0.0	-0.0	-0.0	-0.0	-0.0	-0.0	-0.0	-0.0	-0.0	-0.0	-0.0
0.739	-0.0	-0.0	-0.0	-3.479209899902344	-0.3565216064453125	-598.35205078125	-0.0	-0.0	-0.0	-0.0	-0.0	-0.0	-0.0	-0.0	-0.0	-0.0	-0.0	-0.0
0.7395	-0.0	-0.0	-0.0	-2.936677932739258	-1.2314519882202148	-599.9878540039062	-0.0	-0.0	-0.0	-0.0	-0.0	-0.0	-0.0	-0.0	-0.0	-0.0	-0.0	-0.0
0.74	-0.0	-0.0	-0.0	-3.1550657749176025	-1.824151873588562	-599.8290405273438	-0.0	-0.0	-0.0	-0.0	-0.0	-0.0	-0.0	-0.0	-0.0	-0.0	-0.0	-0.0
0.7405	-0.0	-0.0	-0.0	-3.665293455123901	-2.8771071434021	-602.8439331054688	-0.0	-0.0	-0.0	-0.0	-0.0	-0.0	-0.0	-0.0	-0.0	-0.0	-0.0	-0.0
0.741	-0.0	-0.0	-0.0	-3.349499225616455	-3.7110326290130615	-602.5567626953125	-0.0	-0.0	-0.0	-0.0	-0.0	-0.0	-0.0	-0.0	-0.0	-0.0	-0.0	-0.0
0.7415	-0.0	-0.0	-0.0	-3.56842041015625	-4.3267598152160645	-603.0703735351562	-0.0	-0.0	-0.0	-0.0	-0.0	-0.0	-0.0	-0.0	-0.0	-0.0	-0.0	-0.0
0.742	-0.0	-0.0	-0.0	-3.503986120223999	-5.59912109375	-606.6356201171875	-0.0	-0.0	-0.0	-0.0	-0.0	-0.0	-0.0	-0.0	-0.0	-0.0	-0.0	-0.0
0.7425	-0.0	-0.0	-0.0	-3.803913831710816	-6.044812679290772	-606.3748168945312	-0.0	-0.0	-0.0	-0.0	-0.0	-0.0	-0.0	-0.0	-0.0	-0.0	-0.0	-0.0
0.743	-0.0	-0.0	-0.0	-4.435370445251465	-6.0608673095703125	-608.6286010742188	-0.0	-0.0	-0.0	-0.0	-0.0	-0.0	-0.0	-0.0	-0.0	-0.0	-0.0	-0.0
0.7435	-0.0	-0.0	-0.0	-5.661649703979492	-5.863612651824951	-607.84814453125	-0.0	-0.0	-0.0	-0.0	-0.0	-0.0	-0.0	-0.0	-0.0	-0.0	-0.0	-0.0
0.744	-0.0	-0.0	-0.0	-6.690788269042969	-6.541794300079346	-608.3018188476562	-0.0	-0.0	-0.0	-0.0	-0.0	-0.0	-0.0	-0.0	-0.0	-0.0	-0.0	-0.0
0.7445	-0.0	-0.0	-0.0	-7.267674922943115	-5.898454666137695	-609.0078125	-0.0	-0.0	-0.0	-0.0	-0.0	-0.0	-0.0	-0.0	-0.0	-0.0	-0.0	-0.0
0.745	-0.0	-0.0	-0.0	-7.477893352508545	-5.950440406799316	-608.8602905273438	-0.0	-0.0	-0.0	-0.0	-0.0	-0.0	-0.0	-0.0	-0.0	-0.0	-0.0	-0.0
0.7455	-0.0	-0.0	-0.0	-8.055219650268555	-5.463204860687256	-605.3086547851562	-0.0	-0.0	-0.0	-0.0	-0.0	-0.0	-0.0	-0.0	-0.0	-0.0	-0.0	-0.0
0.746	-0.0	-0.0	-0.0	-9.398426055908203	-4.414331436157227	-607.1163330078125	-0.0	-0.0	-0.0	-0.0	-0.0	-0.0	-0.0	-0.0	-0.0	-0.0	-0.0	-0.0
0.7465	-0.0	-0.0	-0.0	-9.66597843170166	-3.832607269287109	-606.6394653320312	-0.0	-0.0	-0.0	-0.0	-0.0	-0.0	-0.0	-0.0	-0.0	-0.0	-0.0	-0.0
0.747	-0.0	-0.0	-0.0	-10.616050720214844	-3.580768585205078	-605.580322265625	-0.0	-0.0	-0.0	-0.0	-0.0	-0.0	-0.0	-0.0	-0.0	-0.0	-0.0	-0.0
0.7475	-0.0	-0.0	-0.0	-10.821707725524902	-3.53425669670105	-607.9918823242188	-0.0	-0.0	-0.0	-0.0	-0.0	-0.0	-0.0	-0.0	-0.0	-0.0	-0.0	-0.0
0.748	-0.0	-0.0	-0.0	-11.815119743347168	-3.7125961780548096	-606.5322875976562	-0.0	-0.0	-0.0	-0.0	-0.0	-0.0	-0.0	-0.0	-0.0	-0.0	-0.0	-0.0
0.7485	-0.0	-0.0	-0.0	-11.255939483642578	-3.5619399547576904	-608.8822021484375	-0.0	-0.0	-0.0	-0.0	-0.0	-0.0	-0.0	-0.0	-0.0	-0.0	-0.0	-0.0
0.749	-0.0	-0.0	-0.0	-11.39110279083252	-3.2671682834625244	-610.1734619140625	-0.0	-0.0	-0.0	-0.0	-0.0	-0.0	-0.0	-0.0	-0.0	-0.0	-0.0	-0.0
0.7495	-0.0	-0.0	-0.0	-11.301671981811523	-2.9285383224487305	-612.1719970703125	-0.0	-0.0	-0.0	-0.0	-0.0	-0.0	-0.0	-0.0	-0.0	-0.0	-0.0	-0.0
0.75	-0.0	-0.0	-0.0	-11.701790809631348	-3.178293943405152	-611.2422485351562	-0.0	-0.0	-0.0	-0.0	-0.0	-0.0	-0.0	-0.0	-0.0	-0.0	-0.0	-0.0
0.7505000000000001	-0.0	-0.0	-0.0	-11.716925621032717	-2.645425319671631	-611.7149047851562	-0.0	-0.0	-0.0	-0.0	-0.0	-0.0	-0.0	-0.0	-0.0	-0.0	-0.0	-0.0
0.751	-0.0	-0.0	-0.0	-10.467867851257324	-2.895986318588257	-613.0604858398438	-0.0	-0.0	-0.0	-0.0	-0.0	-0.0	-0.0	-0.0	-0.0	-0.0	-0.0	-0.0
0.7515000000000001	-0.0	-0.0	-0.0	-10.050695419311523	-2.9262704849243164	-614.120361328125	-0.0	-0.0	-0.0	-0.0	-0.0	-0.0	-0.0	-0.0	-0.0	-0.0	-0.0	-0.0
0.752	-0.0	-0.0	-0.0	-8.638412475585938	-3.536059617996216	-613.3580322265625	-0.0	-0.0	-0.0	-0.0	-0.0	-0.0	-0.0	-0.0	-0.0	-0.0	-0.0	-0.0
0.7525000000000001	-0.0	-0.0	-0.0	-7.805622577667236	-3.327733039855957	-613.8860473632812	-0.0	-0.0	-0.0	-0.0	-0.0	-0.0	-0.0	-0.0	-0.0	-0.0	-0.0	-0.0
0.753	-0.0	-0.0	-0.0	-6.928787708282471	-3.0601961612701416	-613.5914306640625	-0.0	-0.0	-0.0	-0.0	-0.0	-0.0	-0.0	-0.0	-0.0	-0.0	-0.0	-0.0
0.7535000000000001	-0.0	-0.0	-0.0	-6.765159130096436	-3.1493899822235107	-612.8847045898438	-0.0	-0.0	-0.0	-0.0	-0.0	-0.0	-0.0	-0.0	-0.0	-0.0	-0.0	-0.0
0.754	-0.0	-0.0	-0.0	-6.393012523651123	-2.525768280029297	-611.1766967773438	-0.0	-0.0	-0.0	-0.0	-0.0	-0.0	-0.0	-0.0	-0.0	-0.0	-0.0	-0.0
0.7545000000000001	-0.0	-0.0	-0.0	-7.077931880950928	-2.0647132396698	-610.1783447265625	-0.0	-0.0	-0.0	-0.0	-0.0	-0.0	-0.0	-0.0	-0.0	-0.0	-0.0	-0.0
0.755	-0.0	-0.0	-0.0	-6.899731636047363	-1.8559024333953855	-609.9417724609375	-0.0	-0.0	-0.0	-0.0	-0.0	-0.0	-0.0	-0.0	-0.0	-0.0	-0.0	-0.0
0.7555000000000001	-0.0	-0.0	-0.0	-8.014347076416016	-1.7680219411849976	-608.4712524414062	-0.0	-0.0	-0.0	-0.0	-0.0	-0.0	-0.0	-0.0	-0.0	-0.0	-0.0	-0.0
0.756	-0.0	-0.0	-0.0	-7.313414573669434	-0.9494937658309937	-604.9971923828125	-0.0	-0.0	-0.0	-0.0	-0.0	-0.0	-0.0	-0.0	-0.0	-0.0	-0.0	-0.0
0.7565000000000001	-0.0	-0.0	-0.0	-8.356775283813477	-0.5181182026863098	-605.6461791992188	-0.0	-0.0	-0.0	-0.0	-0.0	-0.0	-0.0	-0.0	-0.0	-0.0	-0.0	-0.0
0.757	-0.0	-0.0	-0.0	-8.414654731750488	0.0026077181100845	-603.8234252929688	-0.0	-0.0	-0.0	-0.0	-0.0	-0.0	-0.0	-0.0	-0.0	-0.0	-0.0	-0.0
0.7575000000000001	-0.0	-0.0	-0.0	-8.253392219543457	0.1322765201330185	-603.0491333007812	-0.0	-0.0	-0.0	-0.0	-0.0	-0.0	-0.0	-0.0	-0.0	-0.0	-0.0	-0.0
0.758	-0.0	-0.0	-0.0	-8.396832466125488	0.8483762741088867	-599.81298828125	-0.0	-0.0	-0.0	-0.0	-0.0	-0.0	-0.0	-0.0	-0.0	-0.0	-0.0	-0.0
0.7585000000000001	-0.0	-0.0	-0.0	-9.113757133483888	0.4529272317886352	-600.5051879882812	-0.0	-0.0	-0.0	-0.0	-0.0	-0.0	-0.0	-0.0	-0.0	-0.0	-0.0	-0.0
0.759	-0.0	-0.0	-0.0	-9.12793254852295	1.515216827392578	-600.605224609375	-0.0	-0.0	-0.0	-0.0	-0.0	-0.0	-0.0	-0.0	-0.0	-0.0	-0.0	-0.0
0.7595000000000001	-0.0	-0.0	-0.0	-9.738102912902832	1.9934196472167969	-596.8180541992188	-0.0	-0.0	-0.0	-0.0	-0.0	-0.0	-0.0	-0.0	-0.0	-0.0	-0.0	-0.0
0.76	-0.0	-0.0	-0.0	-10.343918800354004	2.195552110671997	-597.8397216796875	-0.0	-0.0	-0.0	-0.0	-0.0	-0.0	-0.0	-0.0	-0.0	-0.0	-0.0	-0.0
0.7605000000000001	-0.0	-0.0	-0.0	-11.165377616882324	2.922431230545044	-594.5498046875	-0.0	-0.0	-0.0	-0.0	-0.0	-0.0	-0.0	-0.0	-0.0	-0.0	-0.0	-0.0
0.761	-0.0	-0.0	-0.0	-11.296489715576172	3.133543014526367	-594.3464965820312	-0.0	-0.0	-0.0	-0.0	-0.0	-0.0	-0.0	-0.0	-0.0	-0.0	-0.0	-0.0
0.7615000000000001	-0.0	-0.0	-0.0	-11.508155822753906	3.3869552612304688	-594.8102416992188	-0.0	-0.0	-0.0	-0.0	-0.0	-0.0	-0.0	-0.0	-0.0	-0.0	-0.0	-0.0
0.762	-0.0	-0.0	-0.0	-11.062103271484377	3.654346466064453	-594.6216430664062	-0.0	-0.0	-0.0	-0.0	-0.0	-0.0	-0.0	-0.0	-0.0	-0.0	-0.0	-0.0
0.7625000000000001	-0.0	-0.0	-0.0	-11.377469062805176	3.6882245540618896	-597.9883422851562	-0.0	-0.0	-0.0	-0.0	-0.0	-0.0	-0.0	-0.0	-0.0	-0.0	-0.0	-0.0
0.763	-0.0	-0.0	-0.0	-11.14400577545166	4.031118869781494	-599.0733642578125	-0.0	-0.0	-0.0	-0.0	-0.0	-0.0	-0.0	-0.0	-0.0	-0.0	-0.0	-0.0
0.7635000000000001	-0.0	-0.0	-0.0	-10.92482852935791	4.051977634429932	-600.1613159179688	-0.0	-0.0	-0.0	-0.0	-0.0	-0.0	-0.0	-0.0	-0.0	-0.0	-0.0	-0.0
0.764	-0.0	-0.0	-0.0	-10.231886863708496	4.140944004058838	-602.3087158203125	-0.0	-0.0	-0.0	-0.0	-0.0	-0.0	-0.0	-0.0	-0.0	-0.0	-0.0	-0.0
0.7645000000000001	-0.0	-0.0	-0.0	-9.518275260925291	4.353776931762695	-602.7407836914062	-0.0	-0.0	-0.0	-0.0	-0.0	-0.0	-0.0	-0.0	-0.0	-0.0	-0.0	-0.0
0.765	-0.0	-0.0	-0.0	-9.586180686950684	3.648698091506958	-607.469482421875	-0.0	-0.0	-0.0	-0.0	-0.0	-0.0	-0.0	-0.0	-0.0	-0.0	-0.0	-0.0
0.7655000000000001	-0.0	-0.0	-0.0	-9.661763191223145	3.141185522079468	-608.8287353515625	-0.0	-0.0	-0.0	-0.0	-0.0	-0.0	-0.0	-0.0	-0.0	-0.0	-0.0	-0.0
0.766	-0.0	-0.0	-0.0	-8.916173934936523	1.912025451660156	-607.8758544921875	-0.0	-0.0	-0.0	-0.0	-0.0	-0.0	-0.0	-0.0	-0.0	-0.0	-0.0	-0.0
0.7665000000000001	-0.0	-0.0	-0.0	-8.140352249145508	0.9582582712173462	-609.8887329101562	-0.0	-0.0	-0.0	-0.0	-0.0	-0.0	-0.0	-0.0	-0.0	-0.0	-0.0	-0.0
0.767	-0.0	-0.0	-0.0	-6.958419799804688	-0.3073996901512146	-610.2420654296875	-0.0	-0.0	-0.0	-0.0	-0.0	-0.0	-0.0	-0.0	-0.0	-0.0	-0.0	-0.0
0.7675000000000001	-0.0	-0.0	-0.0	-6.628128528594971	-1.555006980895996	-610.910888671875	-0.0	-0.0	-0.0	-0.0	-0.0	-0.0	-0.0	-0.0	-0.0	-0.0	-0.0	-0.0
0.768	-0.0	-0.0	-0.0	-6.48934268951416	-2.2248129844665527	-612.5051879882812	-0.0	-0.0	-0.0	-0.0	-0.0	-0.0	-0.0	-0.0	-0.0	-0.0	-0.0	-0.0
